<?xml version="1.0" encoding="UTF-8"?>
<svg width="211px" height="180px" viewBox="0 0 211 180" version="1.1" xmlns="http://www.w3.org/2000/svg" xmlns:xlink="http://www.w3.org/1999/xlink">
    <!-- Generator: Sketch 52.2 (67145) - http://www.bohemiancoding.com/sketch -->
    <title>doctorbox_logo_gruen</title>
    <desc>Created with Sketch.</desc>
    <g id="Page-1" stroke="none" stroke-width="1" fill="none" fill-rule="evenodd">
        <g id="doctorbox_logo_gruen" fill="#006F3D">
            <polygon id="Path" points="210.8 0.8 210.8 120.2 145.3 178.2 145.3 47.2"></polygon>
            <polyline id="Path" points="209.8 0.8 83.8 0.8 0.1 47.2 144.3 47.2"></polyline>
            <g id="Group" transform="translate(0.000000, 132.000000)">
                <path d="M18.1,46.4 L0.4,46.4 L0.4,2.1 L18.1,2.1 C25,2.1 33.2,4.5 33.2,13.5 C33.2,18.4 30.3,21.6 25.9,23.1 L25.9,23.2 C31,24.1 35,27.7 35,33.5 C35,43.1 26.6,46.4 18.1,46.4 Z M16,10.6 L10.7,10.6 L10.7,19.7 L16.5,19.7 C20.5,19.7 22.8,18 22.8,14.9 C22.9,11.9 20.5,10.6 16,10.6 Z M16.7,27.6 L10.7,27.6 L10.7,37.7 L16.7,37.7 C20.1,37.7 24.2,36.8 24.2,32.4 C24.3,28.8 21.3,27.6 16.7,27.6 Z" id="Shape" fill-rule="nonzero"></path>
                <path d="M64.1,47.6 C50.3,47.6 40,38.1 40,24 C40,9.8 50.3,0.8 64.1,0.8 C78,0.8 88.3,9.8 88.3,24 C88.3,38.1 78,47.6 64.1,47.6 Z M64.1,10.5 C56.6,10.5 51.4,16.3 51.4,24 C51.4,32 56.6,37.8 64.1,37.8 C71.6,37.8 76.8,32 76.8,24 C76.9,16.3 71.7,10.5 64.1,10.5 Z" id="Shape" fill-rule="nonzero"></path>
                <polygon id="Path" points="120.3 46.4 110.6 30.7 101.3 46.4 88.5 46.4 104 23 89.7 2.1 102.6 2.1 110.9 15.9 119 2.1 131.5 2.1 117.5 23 133.5 46.4"></polygon>
            </g>
            <g id="Group" transform="translate(0.000000, 104.000000)">
                <path d="M0.8,0.7 L7.8,0.7 C13,0.7 18.8,3.7 18.8,10.9 C18.8,17.9 13,21.1 7.8,21.1 L0.8,21.1 L0.8,0.7 Z M3.7,18.5 L7.3,18.5 C12.2,18.5 15.8,15.7 15.8,10.8 C15.8,5.8 12.2,3.1 7.3,3.1 L3.7,3.1 L3.7,18.5 Z" id="Shape" fill-rule="nonzero"></path>
                <path d="M33.8,21.5 C27.6,21.5 23.1,17 23.1,10.8 C23.1,4.5 27.7,0.1 33.8,0.1 C40,0.1 44.6,4.4 44.6,10.8 C44.6,17.1 40,21.5 33.8,21.5 Z M33.8,2.7 C29.1,2.7 26.1,6.4 26.1,10.9 C26.1,15.4 29.1,19.1 33.8,19.1 C38.5,19.1 41.5,15.5 41.5,10.9 C41.6,6.4 38.6,2.7 33.8,2.7 Z" id="Shape" fill-rule="nonzero"></path>
                <path d="M67.4,17.9 C65.8,20.1 63.2,21.6 59.6,21.6 C53.4,21.6 48.9,17.1 48.9,10.9 C48.9,4.6 53.6,0.2 59.7,0.2 C62.5,0.2 65.5,1.3 67,3.4 L64.8,5.1 C63.8,3.7 61.8,2.7 59.7,2.7 C55,2.7 52,6.4 52,10.9 C52,15.5 55,19.1 59.6,19.1 C61.9,19.1 63.9,18.2 65.1,16.4 L67.4,17.9 Z" id="Path"></path>
                <polygon id="Path" points="78.7 21 75.9 21 75.9 3.2 69.4 3.2 69.4 0.7 85.3 0.7 85.3 3.2 78.8 3.2 78.8 21"></polygon>
                <path d="M98.2,21.5 C92,21.5 87.5,17 87.5,10.8 C87.5,4.5 92.1,0.1 98.2,0.1 C104.4,0.1 109,4.4 109,10.8 C109,17.1 104.4,21.5 98.2,21.5 Z M98.2,2.7 C93.5,2.7 90.5,6.4 90.5,10.9 C90.5,15.4 93.5,19.1 98.2,19.1 C102.9,19.1 105.9,15.5 105.9,10.9 C105.9,6.4 102.9,2.7 98.2,2.7 Z" id="Shape" fill-rule="nonzero"></path>
                <path d="M117.2,21 L114.4,21 L114.4,0.7 L120.9,0.7 C124.8,0.7 128.1,2.2 128.1,6.3 C128.1,9.3 126.1,11.2 123.2,11.7 L128.9,21 L125.5,21 L120.3,12 L117.3,12 L117.3,21 L117.2,21 Z M117.2,9.6 L120.5,9.6 C123.2,9.6 125.3,8.8 125.3,6.3 C125.3,3.9 123.2,3.1 120.7,3.1 L117.2,3.1 L117.2,9.6 Z" id="Shape" fill-rule="nonzero"></path>
            </g>
        </g>
    </g>
</svg>